# xmcd CD database file
#
# Track frame offsets:
#	150
#	11867
#	14691
#	18169
#	21104
#	24437
#	27442
#	33194
#	39463
#	45772
#	48795
#	52844
#	57223
#	60013
#	64356
#	67096
#	71414
#	74075
#	77420
#	80394
#	83674
#	90118
#	93260
#	96106
#	103747
#	111503
#	119123
#	126866
#	132452
#	140196
#
# Disc length: 1968 seconds
#
# Revision: 0
# Processed by: cddbd v1.5.1PL0 Copyright (c) Steve Scherf et al.
# Submitted via: CDex 1.51
#
DISCID=8e07ae1e
DTITLE=Jim Ferguson - All Blues for Jazz Guitar
DYEAR=1997
DGENRE=Jazz
TTITLE0=Twelve for Three
TTITLE1=Work Down Blues
TTITLE2=Half-Step Blues
TTITLE3=Freddie's Home
TTITLE4=Stompin' with the Count
TTITLE5=Swinging On The Spot
TTITLE6=Slow Funky Shuffle
TTITLE7=Herbie's Here
TTITLE8=Walking The Blues
TTITLE9=Outside Groove
TTITLE10=Inside Groove
TTITLE11=K's Funky Groove
TTITLE12=Every Other Bar Blues
TTITLE13=K's Funky Groove 2
TTITLE14=Four By George
TTITLE15=Turkey Bacon
TTITLE16=Bebop Groove
TTITLE17=Uptown Funk
TTITLE18=Twelfth Inning Sketch
TTITLE19=Thinkin' Tal
TTITLE20=Blues For Two Joes
TTITLE21=Mick's Blues
TTITLE22=Trane Stop
TTITLE23=Bass Line Movement Example
TTITLE24=Joe's Swing
TTITLE25=Rythmic Variety Example
TTITLE26=Soul Stroll
TTITLE27=Totally Blue
TTITLE28=Bass Lines in Other Keys
TTITLE29=Bb Blues
EXTD=YEAR: 1997
EXTT0=
EXTT1=
EXTT2=
EXTT3=
EXTT4=
EXTT5=
EXTT6=
EXTT7=
EXTT8=
EXTT9=
EXTT10=
EXTT11=
EXTT12=
EXTT13=
EXTT14=
EXTT15=
EXTT16=
EXTT17=
EXTT18=
EXTT19=
EXTT20=
EXTT21=
EXTT22=
EXTT23=
EXTT24=
EXTT25=
EXTT26=
EXTT27=
EXTT28=
EXTT29=
PLAYORDER=
